<svg aria-hidden="true" style="position: absolute; width: 0; height: 0; overflow: hidden;" version="1.1" xmlns="http://www.w3.org/2000/svg" xmlns:xlink="http://www.w3.org/1999/xlink">
<defs>
<symbol id="icon-credit_card" viewBox="0 0 24 24">
<path d="M20.016 8.016v-2.016h-16.031v2.016h16.031zM20.016 18v-6h-16.031v6h16.031zM20.016 3.984q0.844 0 1.406 0.586t0.563 1.43v12q0 0.844-0.563 1.43t-1.406 0.586h-16.031q-0.844 0-1.406-0.586t-0.563-1.43v-12q0-0.844 0.563-1.43t1.406-0.586h16.031z"></path>
</symbol>
<symbol id="icon-settings" viewBox="0 0 24 24">
<path d="M12 15.516q1.453 0 2.484-1.031t1.031-2.484-1.031-2.484-2.484-1.031-2.484 1.031-1.031 2.484 1.031 2.484 2.484 1.031zM19.453 12.984l2.109 1.641q0.328 0.234 0.094 0.656l-2.016 3.469q-0.188 0.328-0.609 0.188l-2.484-0.984q-0.984 0.703-1.688 0.984l-0.375 2.625q-0.094 0.422-0.469 0.422h-4.031q-0.375 0-0.469-0.422l-0.375-2.625q-0.891-0.375-1.688-0.984l-2.484 0.984q-0.422 0.141-0.609-0.188l-2.016-3.469q-0.234-0.422 0.094-0.656l2.109-1.641q-0.047-0.328-0.047-0.984t0.047-0.984l-2.109-1.641q-0.328-0.234-0.094-0.656l2.016-3.469q0.188-0.328 0.609-0.188l2.484 0.984q0.984-0.703 1.688-0.984l0.375-2.625q0.094-0.422 0.469-0.422h4.031q0.375 0 0.469 0.422l0.375 2.625q0.891 0.375 1.688 0.984l2.484-0.984q0.422-0.141 0.609 0.188l2.016 3.469q0.234 0.422-0.094 0.656l-2.109 1.641q0.047 0.328 0.047 0.984t-0.047 0.984z"></path>
</symbol>
<symbol id="icon-logout" viewBox="0 0 24 24">
<path d="M3.984 5.016v13.969h8.016v2.016h-8.016q-0.797 0-1.383-0.609t-0.586-1.406v-13.969q0-0.797 0.586-1.406t1.383-0.609h8.016v2.016h-8.016zM17.016 6.984l4.969 5.016-4.969 5.016-1.406-1.453 2.578-2.578h-10.172v-1.969h10.172l-2.578-2.625z"></path>
</symbol>
</defs>
</svg>
